<svg xmlns="http://www.w3.org/2000/svg" xmlns:xlink="http://www.w3.org/1999/xlink" width="126" zoomAndPan="magnify" viewBox="0 0 94.5 30.000001" height="40" preserveAspectRatio="xMidYMid meet" version="1.0"><defs><g/><clipPath id="c9c7e9682e"><path d="M 85 14 L 92.734375 14 L 92.734375 21 L 85 21 Z M 85 14 " clip-rule="nonzero"/></clipPath></defs><path fill="#0ea5ea" d="M 24.140625 3.683594 L 24.140625 9.519531 L 16.894531 13.566406 L 16.894531 5.457031 L 22.105469 2.597656 C 22.308594 2.484375 22.535156 2.421875 22.769531 2.417969 C 23.003906 2.417969 23.234375 2.472656 23.4375 2.582031 C 23.644531 2.691406 23.816406 2.851562 23.9375 3.042969 C 24.0625 3.238281 24.132812 3.457031 24.140625 3.683594 Z M 24.140625 3.683594 " fill-opacity="1" fill-rule="nonzero"/><path fill="#0ea5ea" d="M 9.652344 3.683594 L 9.652344 9.519531 L 16.894531 13.566406 L 16.894531 5.457031 L 11.6875 2.597656 C 11.484375 2.484375 11.253906 2.421875 11.019531 2.417969 C 10.789062 2.417969 10.558594 2.472656 10.351562 2.582031 C 10.148438 2.691406 9.976562 2.851562 9.851562 3.042969 C 9.730469 3.238281 9.660156 3.457031 9.652344 3.683594 Z M 9.652344 3.683594 " fill-opacity="0.3" fill-rule="nonzero"/><path fill="#0ea5ea" d="M 22.6875 26.589844 L 17.625 23.695312 L 17.703125 15.398438 L 24.746094 19.421875 L 24.644531 25.363281 C 24.640625 25.59375 24.582031 25.824219 24.464844 26.027344 C 24.351562 26.230469 24.1875 26.40625 23.992188 26.527344 C 23.796875 26.652344 23.574219 26.722656 23.34375 26.734375 C 23.117188 26.746094 22.890625 26.695312 22.6875 26.589844 Z M 22.6875 26.589844 " fill-opacity="1" fill-rule="nonzero"/><path fill="#0ea5ea" d="M 29.878906 14.011719 L 24.8125 11.117188 L 17.703125 15.398438 L 24.746094 19.421875 L 29.8125 16.320312 C 30.011719 16.199219 30.179688 16.03125 30.296875 15.828125 C 30.414062 15.625 30.480469 15.398438 30.488281 15.167969 C 30.492188 14.933594 30.441406 14.707031 30.335938 14.503906 C 30.230469 14.300781 30.070312 14.132812 29.878906 14.011719 Z M 29.878906 14.011719 " fill-opacity="0.3" fill-rule="nonzero"/><path fill="#0ea5ea" d="M 10.695312 26.589844 L 15.757812 23.695312 L 15.679688 15.398438 L 8.636719 19.421875 L 8.738281 25.363281 C 8.742188 25.59375 8.800781 25.824219 8.917969 26.027344 C 9.03125 26.230469 9.195312 26.40625 9.390625 26.527344 C 9.585938 26.652344 9.808594 26.722656 10.039062 26.734375 C 10.265625 26.746094 10.492188 26.695312 10.695312 26.589844 Z M 10.695312 26.589844 " fill-opacity="0.3" fill-rule="nonzero"/><path fill="#0ea5ea" d="M 3.503906 14.011719 L 8.570312 11.117188 L 15.679688 15.398438 L 8.636719 19.421875 L 3.570312 16.320312 C 3.371094 16.199219 3.203125 16.03125 3.085938 15.828125 C 2.96875 15.625 2.902344 15.398438 2.894531 15.167969 C 2.890625 14.933594 2.941406 14.707031 3.046875 14.503906 C 3.152344 14.300781 3.3125 14.132812 3.503906 14.011719 Z M 3.503906 14.011719 " fill-opacity="1" fill-rule="nonzero"/><g fill="#0ea5ea" fill-opacity="1"><g transform="translate(29.535345, 23.486159)"><g><path d="M 15.890625 -10.640625 C 16.253906 -10.640625 16.4375 -10.410156 16.4375 -9.953125 C 16.4375 -9.453125 16.238281 -8.988281 15.84375 -8.5625 C 15.132812 -7.78125 14.488281 -6.800781 13.90625 -5.625 C 13.007812 -3.832031 12.5625 -2.222656 12.5625 -0.796875 C 12.5625 -0.234375 12.660156 0.171875 12.859375 0.421875 C 13.054688 0.679688 13.285156 0.8125 13.546875 0.8125 C 14.304688 0.8125 15.195312 0.191406 16.21875 -1.046875 C 17.125 -2.210938 17.816406 -3.347656 18.296875 -4.453125 C 18.421875 -4.703125 18.546875 -4.8125 18.671875 -4.78125 C 18.804688 -4.75 18.816406 -4.609375 18.703125 -4.359375 C 18.046875 -2.898438 17.304688 -1.625 16.484375 -0.53125 C 16.054688 0.0625 15.519531 0.550781 14.875 0.9375 C 14.238281 1.332031 13.601562 1.53125 12.96875 1.53125 C 12.34375 1.53125 11.867188 1.28125 11.546875 0.78125 C 11.234375 0.28125 11.078125 -0.3125 11.078125 -1 C 11.078125 -1.6875 11.160156 -2.363281 11.328125 -3.03125 C 11.492188 -3.707031 11.710938 -4.226562 11.984375 -4.59375 C 10.367188 -2.664062 8.65625 -1.117188 6.84375 0.046875 C 5.882812 0.640625 4.820312 0.988281 3.65625 1.09375 C 3.550781 1.113281 3.363281 1.125 3.09375 1.125 C 2.832031 1.125 2.519531 1.03125 2.15625 0.84375 C 1.007812 0.363281 0.4375 -0.800781 0.4375 -2.65625 C 0.4375 -4.519531 1.039062 -6.535156 2.25 -8.703125 C 2.882812 -9.859375 3.585938 -10.875 4.359375 -11.75 C 3.285156 -12.257812 2.488281 -12.804688 1.96875 -13.390625 C 1.582031 -13.828125 1.390625 -14.347656 1.390625 -14.953125 C 1.390625 -15.554688 1.507812 -15.9375 1.75 -16.09375 C 1.90625 -16.300781 2.046875 -16.34375 2.171875 -16.21875 C 2.273438 -16.070312 2.28125 -15.894531 2.1875 -15.6875 C 2.101562 -15.476562 2.0625 -15.28125 2.0625 -15.09375 C 2.0625 -14.664062 2.289062 -14.1875 2.75 -13.65625 C 3.207031 -13.132812 3.882812 -12.664062 4.78125 -12.25 C 8.53125 -16.40625 12.421875 -18.484375 16.453125 -18.484375 C 17.710938 -18.484375 18.710938 -18.203125 19.453125 -17.640625 C 20.203125 -17.078125 20.578125 -16.347656 20.578125 -15.453125 C 20.578125 -14.484375 20.035156 -13.539062 18.953125 -12.625 C 18.410156 -12.144531 17.632812 -11.734375 16.625 -11.390625 C 15.09375 -10.847656 13.269531 -10.578125 11.15625 -10.578125 C 9.039062 -10.578125 7.289062 -10.800781 5.90625 -11.25 C 4.300781 -8.96875 3.191406 -7.070312 2.578125 -5.5625 C 1.972656 -4.050781 1.671875 -2.882812 1.671875 -2.0625 C 1.671875 -1.882812 1.679688 -1.722656 1.703125 -1.578125 C 1.890625 -0.253906 2.554688 0.40625 3.703125 0.40625 C 4.992188 0.40625 6.492188 -0.296875 8.203125 -1.703125 C 9.410156 -2.722656 10.597656 -3.929688 11.765625 -5.328125 C 12.929688 -6.734375 13.796875 -7.96875 14.359375 -9.03125 C 14.929688 -10.101562 15.441406 -10.640625 15.890625 -10.640625 Z M 19.59375 -15.734375 C 19.59375 -16.421875 19.304688 -16.945312 18.734375 -17.3125 C 18.171875 -17.6875 17.394531 -17.875 16.40625 -17.875 C 15.414062 -17.875 14.429688 -17.710938 13.453125 -17.390625 C 12.472656 -17.066406 11.554688 -16.59375 10.703125 -15.96875 C 9.847656 -15.351562 9.085938 -14.71875 8.421875 -14.0625 C 7.765625 -13.40625 7.054688 -12.625 6.296875 -11.71875 C 7.484375 -11.332031 8.945312 -11.140625 10.6875 -11.140625 C 13.957031 -11.140625 16.34375 -11.664062 17.84375 -12.71875 C 19.007812 -13.539062 19.59375 -14.546875 19.59375 -15.734375 Z M 19.59375 -15.734375 "/></g></g></g><g fill="#d8e6fb" fill-opacity="1"><g transform="translate(48.160159, 20.751801)"><g><path d="M 5.75 -4.9375 C 5.75 -5.257812 5.585938 -5.421875 5.265625 -5.421875 C 4.773438 -5.421875 4.207031 -5.144531 3.5625 -4.59375 C 2.925781 -4.039062 2.394531 -3.460938 1.96875 -2.859375 C 1.789062 -2.503906 1.640625 -2.054688 1.515625 -1.515625 C 1.398438 -0.984375 1.34375 -0.613281 1.34375 -0.40625 C 1.34375 -0.195312 1.378906 -0.0625 1.453125 0 L 0.3125 0 C 0.125 0 0.078125 -0.160156 0.171875 -0.484375 C 0.265625 -0.804688 0.390625 -1.15625 0.546875 -1.53125 C 0.703125 -1.914062 0.898438 -2.351562 1.140625 -2.84375 C 1.378906 -3.332031 1.550781 -3.707031 1.65625 -3.96875 C 0.65625 -2.082031 0.0078125 -1 -0.28125 -0.71875 C -0.394531 -0.601562 -0.453125 -0.640625 -0.453125 -0.828125 C -0.453125 -0.859375 -0.441406 -0.898438 -0.421875 -0.953125 C 0.00390625 -1.515625 0.851562 -3.035156 2.125 -5.515625 C 3.394531 -8.003906 4.289062 -9.632812 4.8125 -10.40625 C 5.21875 -11 5.617188 -11.296875 6.015625 -11.296875 C 6.015625 -11.296875 6.019531 -11.296875 6.03125 -11.296875 L 6.125 -11.296875 C 6.132812 -11.296875 6.238281 -11.273438 6.4375 -11.234375 C 6.644531 -11.203125 6.796875 -11.195312 6.890625 -11.21875 C 6.441406 -10.882812 5.820312 -10.101562 5.03125 -8.875 C 4.238281 -7.644531 3.609375 -6.570312 3.140625 -5.65625 C 2.679688 -4.738281 2.367188 -4.039062 2.203125 -3.5625 C 3.316406 -4.9375 4.3125 -5.789062 5.1875 -6.125 C 5.601562 -6.257812 5.929688 -6.328125 6.171875 -6.328125 C 6.710938 -6.328125 6.984375 -6.101562 6.984375 -5.65625 C 6.984375 -5.5 6.953125 -5.332031 6.890625 -5.15625 C 6.722656 -4.6875 6.375 -4.265625 5.84375 -3.890625 C 5.3125 -3.523438 4.726562 -3.3125 4.09375 -3.25 C 3.945312 -2.90625 3.875 -2.59375 3.875 -2.3125 C 3.875 -2.03125 3.90625 -1.769531 3.96875 -1.53125 C 4.113281 -0.945312 4.382812 -0.585938 4.78125 -0.453125 C 4.875 -0.429688 4.960938 -0.421875 5.046875 -0.421875 C 5.390625 -0.421875 5.789062 -0.632812 6.25 -1.0625 C 6.625 -1.476562 7.117188 -2.3125 7.734375 -3.5625 C 7.816406 -3.71875 7.878906 -3.769531 7.921875 -3.71875 C 7.972656 -3.664062 8 -3.613281 8 -3.5625 C 8 -3.507812 7.90625 -3.269531 7.71875 -2.84375 C 7.539062 -2.425781 7.289062 -1.957031 6.96875 -1.4375 C 6.269531 -0.394531 5.5 0.125 4.65625 0.125 C 4.144531 0.125 3.75 -0.0195312 3.46875 -0.3125 C 3.070312 -0.726562 2.875 -1.269531 2.875 -1.9375 C 2.875 -2.28125 2.960938 -2.628906 3.140625 -2.984375 C 3.328125 -3.335938 3.539062 -3.523438 3.78125 -3.546875 C 3.820312 -3.546875 3.859375 -3.546875 3.890625 -3.546875 C 4.316406 -3.546875 4.734375 -3.707031 5.140625 -4.03125 C 5.546875 -4.363281 5.75 -4.664062 5.75 -4.9375 Z M 5.75 -4.9375 "/></g></g></g><g fill="#d8e6fb" fill-opacity="1"><g transform="translate(54.7961, 20.751801)"><g><path d="M 6.59375 -4.953125 C 6.375 -4.734375 6.0625 -4.234375 5.65625 -3.453125 C 5.257812 -2.679688 5.019531 -2.101562 4.9375 -1.71875 C 4.863281 -1.34375 4.828125 -1.035156 4.828125 -0.796875 C 4.828125 -0.554688 4.914062 -0.4375 5.09375 -0.4375 C 5.332031 -0.4375 5.617188 -0.648438 5.953125 -1.078125 C 6.453125 -1.703125 6.945312 -2.515625 7.4375 -3.515625 C 7.488281 -3.617188 7.546875 -3.675781 7.609375 -3.6875 C 7.703125 -3.726562 7.75 -3.691406 7.75 -3.578125 C 7.75 -3.515625 7.734375 -3.441406 7.703125 -3.359375 C 6.578125 -1.097656 5.628906 0.03125 4.859375 0.03125 C 4.503906 0.03125 4.21875 -0.132812 4 -0.46875 C 3.894531 -0.65625 3.84375 -0.898438 3.84375 -1.203125 C 3.84375 -1.503906 3.898438 -1.878906 4.015625 -2.328125 C 3.046875 -0.753906 2.207031 0.03125 1.5 0.03125 C 1.300781 0.03125 1.125 -0.0234375 0.96875 -0.140625 C 0.601562 -0.398438 0.421875 -0.84375 0.421875 -1.46875 C 0.421875 -2.65625 0.9375 -3.863281 1.96875 -5.09375 C 2.5625 -5.78125 3.28125 -6.226562 4.125 -6.4375 C 4.363281 -6.5 4.585938 -6.53125 4.796875 -6.53125 C 5.347656 -6.53125 5.820312 -6.332031 6.21875 -5.9375 C 6.332031 -5.800781 6.363281 -5.671875 6.3125 -5.546875 C 6.269531 -5.429688 6.171875 -5.382812 6.015625 -5.40625 C 5.878906 -5.84375 5.585938 -6.0625 5.140625 -6.0625 C 4.609375 -6.0625 3.960938 -5.648438 3.203125 -4.828125 C 2.765625 -4.335938 2.351562 -3.765625 1.96875 -3.109375 C 1.5 -2.316406 1.265625 -1.679688 1.265625 -1.203125 C 1.265625 -0.734375 1.414062 -0.5 1.71875 -0.5 C 2.445312 -0.5 3.40625 -1.617188 4.59375 -3.859375 C 4.820312 -4.304688 5.015625 -4.613281 5.171875 -4.78125 C 5.328125 -4.945312 5.53125 -5.03125 5.78125 -5.03125 C 5.820312 -5.03125 5.941406 -5.007812 6.140625 -4.96875 C 6.347656 -4.9375 6.5 -4.929688 6.59375 -4.953125 Z M 6.59375 -4.953125 "/></g></g></g><g fill="#d8e6fb" fill-opacity="1"><g transform="translate(61.194394, 20.751801)"><g><path d="M 6.5625 -6 C 5.0625 -3.363281 4.3125 -1.644531 4.3125 -0.84375 C 4.3125 -0.519531 4.425781 -0.359375 4.65625 -0.359375 C 5.28125 -0.359375 6.117188 -1.414062 7.171875 -3.53125 C 7.242188 -3.695312 7.316406 -3.757812 7.390625 -3.71875 C 7.460938 -3.6875 7.5 -3.640625 7.5 -3.578125 C 7.5 -3.515625 7.472656 -3.441406 7.421875 -3.359375 C 6.773438 -2.054688 6.226562 -1.15625 5.78125 -0.65625 C 5.34375 -0.164062 4.898438 0.078125 4.453125 0.078125 C 4.003906 0.078125 3.664062 -0.09375 3.4375 -0.4375 C 3.3125 -0.59375 3.25 -0.804688 3.25 -1.078125 C 3.25 -1.359375 3.3125 -1.691406 3.4375 -2.078125 C 3.5625 -2.472656 3.894531 -3.109375 4.4375 -3.984375 C 4.570312 -4.203125 4.640625 -4.375 4.640625 -4.5 C 4.640625 -4.632812 4.535156 -4.703125 4.328125 -4.703125 C 4.117188 -4.703125 3.722656 -4.425781 3.140625 -3.875 C 2.265625 -3.070312 1.421875 -1.863281 0.609375 -0.25 C 0.535156 -0.132812 0.453125 -0.0625 0.359375 -0.03125 C 0.265625 0 0.0859375 0.0195312 -0.171875 0.03125 C -0.441406 0.0507812 -0.625 0.0820312 -0.71875 0.125 C -0.519531 -0.257812 -0.132812 -1.054688 0.4375 -2.265625 C 1.457031 -4.398438 2.128906 -5.617188 2.453125 -5.921875 C 2.597656 -6.066406 2.796875 -6.140625 3.046875 -6.140625 C 3.097656 -6.140625 3.222656 -6.117188 3.421875 -6.078125 C 3.628906 -6.046875 3.78125 -6.039062 3.875 -6.0625 C 3.425781 -5.820312 2.6875 -4.675781 1.65625 -2.625 C 2.226562 -3.332031 2.75 -3.894531 3.21875 -4.3125 C 3.695312 -4.738281 4.265625 -5.128906 4.921875 -5.484375 C 5.578125 -5.847656 6.054688 -6.03125 6.359375 -6.03125 C 6.429688 -6.03125 6.5 -6.019531 6.5625 -6 Z M 6.5625 -6 "/></g></g></g><g fill="#d8e6fb" fill-opacity="1"><g transform="translate(67.318472, 20.751801)"><g><path d="M 5.75 -4.9375 C 5.75 -5.257812 5.585938 -5.421875 5.265625 -5.421875 C 4.773438 -5.421875 4.207031 -5.144531 3.5625 -4.59375 C 2.925781 -4.039062 2.394531 -3.460938 1.96875 -2.859375 C 1.789062 -2.503906 1.640625 -2.054688 1.515625 -1.515625 C 1.398438 -0.984375 1.34375 -0.613281 1.34375 -0.40625 C 1.34375 -0.195312 1.378906 -0.0625 1.453125 0 L 0.3125 0 C 0.125 0 0.078125 -0.160156 0.171875 -0.484375 C 0.265625 -0.804688 0.390625 -1.15625 0.546875 -1.53125 C 0.703125 -1.914062 0.898438 -2.351562 1.140625 -2.84375 C 1.378906 -3.332031 1.550781 -3.707031 1.65625 -3.96875 C 0.65625 -2.082031 0.0078125 -1 -0.28125 -0.71875 C -0.394531 -0.601562 -0.453125 -0.640625 -0.453125 -0.828125 C -0.453125 -0.859375 -0.441406 -0.898438 -0.421875 -0.953125 C 0.00390625 -1.515625 0.851562 -3.035156 2.125 -5.515625 C 3.394531 -8.003906 4.289062 -9.632812 4.8125 -10.40625 C 5.21875 -11 5.617188 -11.296875 6.015625 -11.296875 C 6.015625 -11.296875 6.019531 -11.296875 6.03125 -11.296875 L 6.125 -11.296875 C 6.132812 -11.296875 6.238281 -11.273438 6.4375 -11.234375 C 6.644531 -11.203125 6.796875 -11.195312 6.890625 -11.21875 C 6.441406 -10.882812 5.820312 -10.101562 5.03125 -8.875 C 4.238281 -7.644531 3.609375 -6.570312 3.140625 -5.65625 C 2.679688 -4.738281 2.367188 -4.039062 2.203125 -3.5625 C 3.316406 -4.9375 4.3125 -5.789062 5.1875 -6.125 C 5.601562 -6.257812 5.929688 -6.328125 6.171875 -6.328125 C 6.710938 -6.328125 6.984375 -6.101562 6.984375 -5.65625 C 6.984375 -5.5 6.953125 -5.332031 6.890625 -5.15625 C 6.722656 -4.6875 6.375 -4.265625 5.84375 -3.890625 C 5.3125 -3.523438 4.726562 -3.3125 4.09375 -3.25 C 3.945312 -2.90625 3.875 -2.59375 3.875 -2.3125 C 3.875 -2.03125 3.90625 -1.769531 3.96875 -1.53125 C 4.113281 -0.945312 4.382812 -0.585938 4.78125 -0.453125 C 4.875 -0.429688 4.960938 -0.421875 5.046875 -0.421875 C 5.390625 -0.421875 5.789062 -0.632812 6.25 -1.0625 C 6.625 -1.476562 7.117188 -2.3125 7.734375 -3.5625 C 7.816406 -3.71875 7.878906 -3.769531 7.921875 -3.71875 C 7.972656 -3.664062 8 -3.613281 8 -3.5625 C 8 -3.507812 7.90625 -3.269531 7.71875 -2.84375 C 7.539062 -2.425781 7.289062 -1.957031 6.96875 -1.4375 C 6.269531 -0.394531 5.5 0.125 4.65625 0.125 C 4.144531 0.125 3.75 -0.0195312 3.46875 -0.3125 C 3.070312 -0.726562 2.875 -1.269531 2.875 -1.9375 C 2.875 -2.28125 2.960938 -2.628906 3.140625 -2.984375 C 3.328125 -3.335938 3.539062 -3.523438 3.78125 -3.546875 C 3.820312 -3.546875 3.859375 -3.546875 3.890625 -3.546875 C 4.316406 -3.546875 4.734375 -3.707031 5.140625 -4.03125 C 5.546875 -4.363281 5.75 -4.664062 5.75 -4.9375 Z M 5.75 -4.9375 "/></g></g></g><g fill="#d8e6fb" fill-opacity="1"><g transform="translate(73.954413, 20.751801)"><g><path d="M 2.609375 -0.34375 C 2.765625 -0.320312 2.875 -0.3125 2.9375 -0.3125 C 3.425781 -0.3125 3.910156 -0.597656 4.390625 -1.171875 C 4.640625 -1.484375 5.09375 -2.28125 5.75 -3.5625 C 5.78125 -3.625 5.828125 -3.65625 5.890625 -3.65625 C 5.992188 -3.664062 6.046875 -3.625 6.046875 -3.53125 C 6.046875 -3.5 6.019531 -3.425781 5.96875 -3.3125 C 5.914062 -3.195312 5.863281 -3.082031 5.8125 -2.96875 C 5.757812 -2.851562 5.675781 -2.6875 5.5625 -2.46875 C 5.457031 -2.25 5.363281 -2.070312 5.28125 -1.9375 C 5.207031 -1.800781 5.109375 -1.632812 4.984375 -1.4375 C 4.867188 -1.25 4.75 -1.097656 4.625 -0.984375 L 4.234375 -0.578125 C 4.023438 -0.378906 3.78125 -0.234375 3.5 -0.140625 C 3.050781 0.00390625 2.613281 0.015625 2.1875 -0.109375 C 1.90625 0.015625 1.65625 0.078125 1.4375 0.078125 C 0.570312 0.078125 0.0507812 -0.265625 -0.125 -0.953125 C -0.164062 -1.109375 -0.1875 -1.296875 -0.1875 -1.515625 C -0.1875 -1.742188 -0.113281 -1.960938 0.03125 -2.171875 C 0.1875 -2.378906 0.351562 -2.488281 0.53125 -2.5 C 1.144531 -3.6875 1.675781 -4.753906 2.125 -5.703125 C 2.601562 -6.734375 3.164062 -7.25 3.8125 -7.25 C 3.988281 -7.25 4.15625 -7.207031 4.3125 -7.125 C 4.476562 -7.050781 4.539062 -6.96875 4.5 -6.875 C 4.457031 -6.78125 4.367188 -6.757812 4.234375 -6.8125 C 4.097656 -6.875 3.984375 -6.90625 3.890625 -6.90625 C 3.796875 -6.90625 3.710938 -6.890625 3.640625 -6.859375 C 3.222656 -6.660156 3.015625 -6.238281 3.015625 -5.59375 C 3.015625 -5.25 3.0625 -4.96875 3.15625 -4.75 C 3.257812 -4.53125 3.367188 -4.296875 3.484375 -4.046875 C 3.765625 -3.410156 3.90625 -2.890625 3.90625 -2.484375 C 3.90625 -2.085938 3.773438 -1.691406 3.515625 -1.296875 C 3.265625 -0.910156 2.960938 -0.59375 2.609375 -0.34375 Z M 1.984375 -0.46875 C 2.523438 -0.882812 2.796875 -1.554688 2.796875 -2.484375 C 2.796875 -2.859375 2.75 -3.375 2.65625 -4.03125 C 2.570312 -4.695312 2.53125 -5.144531 2.53125 -5.375 C 2.53125 -5.601562 2.539062 -5.757812 2.5625 -5.84375 C 1.632812 -4 1.0625 -2.875 0.84375 -2.46875 C 1.09375 -2.46875 1.21875 -2.285156 1.21875 -1.921875 C 1.21875 -1.203125 1.472656 -0.71875 1.984375 -0.46875 Z M 0.625 -0.96875 C 0.625 -0.894531 0.628906 -0.816406 0.640625 -0.734375 C 0.734375 -0.398438 0.957031 -0.234375 1.3125 -0.234375 C 1.457031 -0.234375 1.578125 -0.257812 1.671875 -0.3125 C 1.222656 -0.59375 0.984375 -1.050781 0.953125 -1.6875 C 0.734375 -1.46875 0.625 -1.226562 0.625 -0.96875 Z M 0.625 -0.96875 "/></g></g></g><g fill="#d8e6fb" fill-opacity="1"><g transform="translate(78.634307, 20.751801)"><g><path d="M 4.296875 -0.828125 C 4.296875 -0.484375 4.414062 -0.3125 4.65625 -0.3125 C 5.226562 -0.3125 6.039062 -1.382812 7.09375 -3.53125 C 7.175781 -3.695312 7.25 -3.757812 7.3125 -3.71875 C 7.382812 -3.6875 7.421875 -3.640625 7.421875 -3.578125 C 7.421875 -3.515625 7.347656 -3.335938 7.203125 -3.046875 C 7.066406 -2.765625 6.925781 -2.492188 6.78125 -2.234375 C 6.644531 -1.972656 6.441406 -1.628906 6.171875 -1.203125 C 5.617188 -0.347656 5.023438 0.078125 4.390625 0.078125 C 3.972656 0.078125 3.644531 -0.09375 3.40625 -0.4375 C 3.289062 -0.59375 3.234375 -0.804688 3.234375 -1.078125 C 3.234375 -1.359375 3.289062 -1.691406 3.40625 -2.078125 C 3.53125 -2.472656 3.867188 -3.109375 4.421875 -3.984375 C 4.554688 -4.203125 4.625 -4.375 4.625 -4.5 C 4.625 -4.632812 4.519531 -4.703125 4.3125 -4.703125 C 4.101562 -4.703125 3.707031 -4.425781 3.125 -3.875 C 2.25 -3.070312 1.394531 -1.863281 0.5625 -0.25 C 0.476562 -0.0703125 0.253906 0.015625 -0.109375 0.015625 C -0.441406 0.046875 -0.648438 0.0820312 -0.734375 0.125 C 1.578125 -4.6875 3.253906 -8.039062 4.296875 -9.9375 C 4.523438 -10.363281 4.726562 -10.660156 4.90625 -10.828125 C 5.082031 -11.003906 5.296875 -11.09375 5.546875 -11.09375 C 5.597656 -11.09375 5.722656 -11.078125 5.921875 -11.046875 C 6.117188 -11.015625 6.265625 -11.007812 6.359375 -11.03125 C 5.992188 -10.644531 5.335938 -9.59375 4.390625 -7.875 C 3.453125 -6.164062 2.550781 -4.429688 1.6875 -2.671875 C 2.257812 -3.390625 2.769531 -3.945312 3.21875 -4.34375 C 3.675781 -4.75 4.234375 -5.128906 4.890625 -5.484375 C 5.554688 -5.847656 6.039062 -6.03125 6.34375 -6.03125 C 6.414062 -6.03125 6.484375 -6.019531 6.546875 -6 C 5.046875 -3.363281 4.296875 -1.640625 4.296875 -0.828125 Z M 4.296875 -0.828125 "/></g></g></g><g clip-path="url(#c9c7e9682e)"><g fill="#d8e6fb" fill-opacity="1"><g transform="translate(84.703544, 20.751801)"><g><path d="M 6.59375 -4.953125 C 6.375 -4.734375 6.0625 -4.234375 5.65625 -3.453125 C 5.257812 -2.679688 5.019531 -2.101562 4.9375 -1.71875 C 4.863281 -1.34375 4.828125 -1.035156 4.828125 -0.796875 C 4.828125 -0.554688 4.914062 -0.4375 5.09375 -0.4375 C 5.332031 -0.4375 5.617188 -0.648438 5.953125 -1.078125 C 6.453125 -1.703125 6.945312 -2.515625 7.4375 -3.515625 C 7.488281 -3.617188 7.546875 -3.675781 7.609375 -3.6875 C 7.703125 -3.726562 7.75 -3.691406 7.75 -3.578125 C 7.75 -3.515625 7.734375 -3.441406 7.703125 -3.359375 C 6.578125 -1.097656 5.628906 0.03125 4.859375 0.03125 C 4.503906 0.03125 4.21875 -0.132812 4 -0.46875 C 3.894531 -0.65625 3.84375 -0.898438 3.84375 -1.203125 C 3.84375 -1.503906 3.898438 -1.878906 4.015625 -2.328125 C 3.046875 -0.753906 2.207031 0.03125 1.5 0.03125 C 1.300781 0.03125 1.125 -0.0234375 0.96875 -0.140625 C 0.601562 -0.398438 0.421875 -0.84375 0.421875 -1.46875 C 0.421875 -2.65625 0.9375 -3.863281 1.96875 -5.09375 C 2.5625 -5.78125 3.28125 -6.226562 4.125 -6.4375 C 4.363281 -6.5 4.585938 -6.53125 4.796875 -6.53125 C 5.347656 -6.53125 5.820312 -6.332031 6.21875 -5.9375 C 6.332031 -5.800781 6.363281 -5.671875 6.3125 -5.546875 C 6.269531 -5.429688 6.171875 -5.382812 6.015625 -5.40625 C 5.878906 -5.84375 5.585938 -6.0625 5.140625 -6.0625 C 4.609375 -6.0625 3.960938 -5.648438 3.203125 -4.828125 C 2.765625 -4.335938 2.351562 -3.765625 1.96875 -3.109375 C 1.5 -2.316406 1.265625 -1.679688 1.265625 -1.203125 C 1.265625 -0.734375 1.414062 -0.5 1.71875 -0.5 C 2.445312 -0.5 3.40625 -1.617188 4.59375 -3.859375 C 4.820312 -4.304688 5.015625 -4.613281 5.171875 -4.78125 C 5.328125 -4.945312 5.53125 -5.03125 5.78125 -5.03125 C 5.820312 -5.03125 5.941406 -5.007812 6.140625 -4.96875 C 6.347656 -4.9375 6.5 -4.929688 6.59375 -4.953125 Z M 6.59375 -4.953125 "/></g></g></g></g></svg>